<svg version="1.1" xmlns="http://www.w3.org/2000/svg" viewBox="-1280.9002091990396 -2634.362756993758 6777.608388240763 4880.629422345901"><desc>Created with Snap</desc><defs></defs><g><g transform="matrix(15.8479,0,0,15.8479,-1061.6786,-3363.6306)">
<g id="gSl832idwm1mo">
	<g>
		<g>
			<path d="M387.88501,83.59349V316.4075H12.115V83.59349H387.88501 M391.96945,79.50903H8.03054v240.98294h383.9389V79.50903
				L391.96945,79.50903z" fill="#5ca4a9" style=""></path>
			<path d="M38.30037,67.71037l353.83911,50.25497l-30.43997,214.32426L7.86052,282.03564L38.30037,67.71037 M36.56565,65.4009
				L5.55142,283.77075l357.88281,50.82834l31.01434-218.36884L36.56565,65.4009L36.56565,65.4009z" fill="#5ca4a9" style=""></path>
			<path d="M361.69949,67.71037l30.43997,214.32527L38.30037,332.28961L7.86052,117.96535L361.69949,67.71037 M363.43423,65.4009
				L5.55142,116.23025l31.01422,218.36884l357.88293-50.82834L363.43423,65.4009L363.43423,65.4009z" fill="#5ca4a9" style=""></path>
		</g>
		<rect x="47.64159" y="114.85448" width="304.71683" height="170.29103" fill="#5ca4a9" style=""></rect>
	</g>
</g>


<desc>Created with Snap</desc><defs></defs></g><g><g transform="matrix(1.024,0,0,-1.024,0,0)"><path d="M461 237L315 537L170 237L461 237ZM230 608L319 608Q335 608 341 596L624 24Q626 20 626 15Q626 -2 610 -8Q604 -10 599 -10Q582 -10 576 3L483 191L148 191L55 3Q46 -17 21 -8Q5 -2 5 14Q5 18 7 23L273 561L230 561Q220 561 213 567Q207 574 207 584Q207 594 213 601Q220 608 230 608ZM651 374L702 374Q765 374 767 306Q821 384 895 384Q937 384 966 368Q980 360 980 347L980 263Q980 253 972 246Q964 240 953 240Q942 240 934 246Q926 253 926 263L926 333Q913 338 887 338Q861 338 828 313Q795 289 771 241L771 13Q771 3 763 -4Q755 -10 744 -10Q733 -10 725 -4Q717 3 717 13L717 308Q717 327 697 327L651 327Q641 327 634 333Q628 340 628 350Q628 360 634 367Q641 374 651 374ZM987 -180L1019 -183Q1068 -183 1099 -142Q1123 -111 1152 -51L1186 19L1023 349Q1019 358 1023 367Q1028 376 1037 380Q1047 385 1056 385Q1066 385 1073 370L1214 74L1355 370Q1362 385 1371 385Q1395 385 1404 367Q1406 362 1406 357Q1406 353 1404 349L1200 -71Q1181 -111 1169 -131Q1158 -150 1136 -178Q1093 -229 1018 -229Q997 -229 986 -226Q964 -221 967 -201Q970 -180 987 -180ZM1744 136L1744 155Q1678 173 1631 173Q1585 173 1555 155Q1526 137 1526 104Q1526 72 1545 54Q1564 36 1597 36Q1689 36 1744 136ZM1824 47L1863 47Q1873 47 1879 40Q1886 33 1886 23Q1886 13 1879 6Q1873 0 1863 0L1819 0Q1783 0 1763 16Q1744 32 1744 61Q1744 66 1745 72Q1692 -10 1591 -10Q1535 -10 1503 20Q1472 50 1472 103Q1472 157 1514 187Q1557 218 1620 218Q1684 218 1744 197L1744 266Q1744 314 1709 328Q1682 338 1634 338Q1587 338 1547 322L1547 259Q1547 249 1539 242Q1531 236 1520 236Q1509 236 1501 242Q1493 249 1493 259L1493 335Q1493 348 1506 355Q1555 384 1636 384Q1717 384 1757 357Q1797 331 1797 266L1797 66Q1797 47 1824 47ZM1956 327L1909 327Q1899 327 1892 333Q1886 340 1886 350Q1886 360 1892 367Q1899 374 1909 374L1963 374Q2025 374 2025 306Q2085 384 2176 384Q2230 384 2264 356Q2299 329 2299 276L2299 66Q2299 47 2326 47L2365 47Q2375 47 2381 40Q2388 33 2388 23Q2388 13 2381 6Q2375 0 2365 0L2326 0Q2245 0 2245 65L2245 276Q2245 306 2226 322Q2208 338 2175 338Q2083 338 2029 242L2029 13Q2029 3 2021 -4Q2013 -10 2002 -10Q1991 -10 1983 -4Q1975 3 1975 13L1975 308Q1975 327 1956 327ZM2918 561L2765 561L2765 47L2918 47Q3034 47 3099 114Q3165 182 3165 302Q3165 423 3098 492Q3031 561 2918 561ZM2711 23L2711 561L2651 561Q2641 561 2634 567Q2628 574 2628 584Q2628 594 2634 601Q2641 608 2651 608L2918 608Q3054 608 3136 525Q3219 443 3219 303Q3219 163 3138 81Q3057 0 2918 0L2737 0Q2711 0 2711 23ZM3612 220Q3609 274 3580 306Q3552 338 3498 338Q3445 338 3409 305Q3373 273 3364 220L3612 220ZM3614 96Q3621 108 3630 108Q3639 108 3648 103Q3657 99 3660 89Q3664 80 3659 72Q3608 -10 3497 -10Q3409 -10 3358 46Q3308 103 3308 189Q3308 275 3360 329Q3412 384 3497 384Q3582 384 3623 333Q3665 282 3665 197Q3665 174 3639 174L3362 173Q3366 111 3402 73Q3439 36 3497 36Q3575 36 3614 96ZM3921 66L4061 370Q4068 385 4077 385Q4101 385 4110 367Q4112 362 4112 357Q4112 353 4110 349L3946 6Q3938 -10 3920 -10Q3903 -10 3895 6L3730 349Q3728 353 3728 358Q3728 373 3746 381Q3754 385 3763 385Q3773 385 3780 370L3921 66Z" fill="#343333" style=""></path></g></g></g></svg>