<?xml version="1.0" standalone="no"?>
<!DOCTYPE svg PUBLIC "-//W3C//DTD SVG 1.0//EN" "http://www.w3.org/TR/2001/REC-SVG-20010904/DTD/svg10.dtd">
<svg xmlns="http://www.w3.org/2000/svg" xmlns:xlink="http://www.w3.org/1999/xlink" id="body_1" width="82" height="24">

<g transform="matrix(0.16015625 0 0 0.16015625 -0 0.06835893)">
	<g>
        <path d="M3.3322487 115.62903L3.3322487 58.647575L74.47575 58.647575L74.47575 55.315327L3.3322487 55.315327L3.3322487 3.3322487L78.97429 3.3322487L78.97429 0L-3.5527137E-15 0L-3.5527137E-15 118.96127L79.64074 118.96127L79.64074 115.62903L3.3322487 115.62903zM143.78653 33.322487L114.29613 72.14318L85.472176 33.322487L81.14025 33.322487L112.296776 74.64237L78.14123 118.96127L82.13993 118.96127L114.29613 77.141556L146.61894 118.96127L150.78426 118.96127L116.46209 74.64237L147.78523 33.322487L143.78653 33.322487zM160.78099 148.28506L160.78099 94.969086L161.11423 94.969086C 163.11359 102.74437 167.0567 108.99227 172.94371 113.71298C 178.8307 118.43369 186.32819 120.794014 195.43639 120.794014C 201.32338 120.794014 206.54385 119.59997 211.09795 117.211845C 215.65204 114.82372 219.45633 111.574814 222.5109 107.46502C 225.56548 103.355225 227.89803 98.57905 229.50862 93.13635C 231.11922 87.69365 231.9245 81.97334 231.9245 75.975266C 231.9245 69.53289 231.09145 63.59044 229.42532 58.14774C 227.75919 52.70504 225.34332 47.9844 222.17767 43.985683C 219.01202 39.986965 215.17998 36.876896 210.68141 34.655384C 206.18286 32.433876 201.10123 31.323137 195.43639 31.323137C 191.10443 31.323137 187.078 31.961811 183.35698 33.23918C 179.63596 34.51655 176.3315 36.3215 173.44354 38.654083C 170.55557 40.98667 168.05641 43.73575 165.94598 46.901398C 163.83554 50.06705 162.22498 53.53811 161.11423 57.314674L161.11423 57.314674L160.78099 57.314674L160.78099 33.322487L157.44875 33.322487L157.44875 148.28506L160.78099 148.28506zM195.43639 117.62837C 184.99529 117.62837 176.6092 114.04624 170.27791 106.881874C 163.9466 99.71751 160.78099 89.415405 160.78099 75.975266C 160.78099 70.42149 161.55852 65.145485 163.11357 60.147087C 164.66862 55.14869 166.91788 50.761272 169.86137 46.984707C 172.80487 43.208138 176.44254 40.209145 180.77449 37.987633C 185.10643 35.766125 189.99368 34.655384 195.43639 34.655384C 200.99016 34.655384 205.84964 35.766125 210.01497 37.987633C 214.1803 40.209145 217.6236 43.235905 220.34494 47.068012C 223.06628 50.900116 225.12115 55.287533 226.5096 60.230392C 227.89804 65.173256 228.59225 70.42149 228.59225 75.975266C 228.59225 80.97366 227.95358 85.94422 226.67621 90.88708C 225.39885 95.82994 223.42728 100.272896 220.76147 104.21607C 218.09566 108.159256 214.68015 111.3804 210.5148 113.87959C 206.34947 116.37879 201.32338 117.62837 195.43639 117.62837zM250.25188 118.96127L250.25188 70.47706C 250.25188 65.81189 250.91832 61.25786 252.25122 56.81484C 253.58412 52.37182 255.63899 48.456467 258.4159 45.06866C 261.19278 41.68086 264.71936 39.015087 268.99576 37.071266C 273.2722 35.127445 278.35382 34.32216 284.2408 34.655384L284.2408 34.655384L284.2408 31.323137C 279.13135 31.21206 274.6606 31.767431 270.8285 32.98926C 266.9964 34.211094 263.69196 35.8772 260.91507 37.987633C 258.13818 40.09807 255.9167 42.56946 254.25056 45.401886C 252.58444 48.234314 251.36263 51.261074 250.5851 54.482265L250.5851 54.482265L250.25188 54.482265L250.25188 33.322487L246.91962 33.322487L246.91962 118.96127L250.25188 118.96127zM288.40613 76.808334L360.04947 76.808334C 360.2716 70.921326 359.68848 65.25656 358.30002 59.81386C 356.9116 54.371162 354.69012 49.53945 351.63553 45.31858C 348.58096 41.097713 344.63785 37.70996 339.80606 35.155224C 334.97427 32.600487 329.2262 31.323137 322.56168 31.323137C 317.78543 31.323137 313.12033 32.322803 308.56622 34.322163C 304.01212 36.32152 300.01346 39.23721 296.57013 43.069313C 293.1268 46.901417 290.34995 51.594288 288.2395 57.148064C 286.12906 62.70184 285.07388 69.03305 285.07388 76.141884C 285.07388 82.47318 285.79584 88.38787 287.23984 93.88611C 288.6838 99.384346 290.9053 104.160515 293.90433 108.214775C 296.90335 112.26903 300.76318 115.40687 305.4839 117.62837C 310.2046 119.849884 315.89713 120.90509 322.56168 120.794014C 332.3363 120.794014 340.5558 118.04494 347.2203 112.5467C 353.88483 107.04846 357.82797 99.301056 359.04977 89.30426L359.04977 89.30426L355.71753 89.30426C 354.27356 98.74568 350.58035 105.82664 344.63782 110.54735C 338.69528 115.26806 331.22556 117.62837 322.22845 117.62837C 316.1193 117.62837 310.95435 116.57317 306.7335 114.46274C 302.5126 112.3523 299.06934 109.464386 296.4035 105.7989C 293.7377 102.1334 291.76614 97.82929 290.48877 92.88643C 289.2114 87.94357 288.51718 82.58426 288.40613 76.808334zM356.71722 73.47608L288.40613 73.47608C 288.73935 67.478004 289.85007 62.090923 291.73837 57.314674C 293.62665 52.53843 296.09805 48.456467 299.15262 45.06866C 302.20718 41.68086 305.76157 39.098392 309.81583 37.321186C 313.8701 35.543976 318.2297 34.655384 322.8949 34.655384C 328.44867 34.655384 333.3359 35.68282 337.5568 37.737717C 341.77765 39.792614 345.30426 42.597225 348.1367 46.15164C 350.9691 49.70606 353.10727 53.84356 354.55124 58.56427C 355.99524 63.284977 356.71722 68.25553 356.71722 73.47608zM429.19363 58.647575L432.52588 58.647575C 432.52588 49.09508 429.74902 42.152966 424.19525 37.821022C 418.64148 33.48908 411.08844 31.323137 401.53595 31.323137C 396.20435 31.323137 391.70584 31.98958 388.04034 33.322487C 384.37485 34.65539 381.37585 36.377037 379.04327 38.487473C 376.7107 40.597908 375.0446 42.930458 374.04492 45.485195C 373.04523 48.039932 372.5454 50.483555 372.5454 52.81614C 372.5454 57.48131 373.37845 61.202286 375.0446 63.97917C 376.71072 66.75606 379.32095 68.922005 382.87537 70.47706C 385.31903 71.587814 388.0959 72.58748 391.206 73.47608C 394.3161 74.364685 397.926 75.308815 402.0358 76.308495C 405.7013 77.1971 409.3112 78.085686 412.8656 78.97429C 416.42 79.8629 419.55786 81.05694 422.2792 82.55646C 425.00055 84.05598 427.22205 85.972 428.9437 88.30459C 430.66537 90.63718 431.52618 93.6917 431.52618 97.46827C 431.52618 101.133766 430.66537 104.24383 428.9437 106.79857C 427.22205 109.3533 425.02832 111.435936 422.36252 113.04653C 419.6967 114.65713 416.72546 115.8234 413.44876 116.545395C 410.17203 117.26739 406.97864 117.62837 403.86853 117.62837C 393.76065 117.62837 386.01328 115.37913 380.6261 110.88057C 375.23892 106.38201 372.5454 99.301056 372.5454 89.63749L372.5454 89.63749L369.21313 89.63749C 369.21313 100.41181 372.12885 108.29806 377.9603 113.296455C 383.79178 118.29485 392.42776 120.794014 403.86853 120.794014C 407.53403 120.794014 411.22723 120.37749 414.94827 119.54442C 418.66928 118.71135 422.0015 117.3507 424.945 115.46242C 427.88852 113.57413 430.27658 111.13051 432.10934 108.13147C 433.94208 105.13243 434.85843 101.466995 434.85843 97.13505C 434.85843 93.02525 434.05316 89.69304 432.44257 87.1383C 430.83197 84.583565 428.72156 82.47316 426.1113 80.80703C 423.501 79.1409 420.55756 77.83578 417.28082 76.89164C 414.00412 75.947495 410.69965 75.031136 407.3674 74.14253C 402.7022 72.9207 398.62027 71.8655 395.12137 70.9769C 391.6225 70.088295 388.3736 69.03309 385.37454 67.81126C 382.4866 66.58943 380.1818 64.84002 378.46014 62.56297C 376.73846 60.28592 375.87766 57.03701 375.87766 52.81614C 375.87766 52.038612 376.0998 50.65019 376.5441 48.65083C 376.9884 46.65147 378.0436 44.624374 379.70972 42.569477C 381.37585 40.51458 383.93057 38.68186 387.3739 37.071266C 390.81723 35.46067 395.53787 34.655384 401.53595 34.655384C 405.64575 34.655384 409.3945 35.09968 412.7823 35.988285C 416.1701 36.87689 419.0858 38.29308 421.52945 40.2369C 423.9731 42.180725 425.86136 44.652115 427.19427 47.651154C 428.5272 50.650192 429.19363 54.31563 429.19363 58.647575zM506.33517 58.647575L509.66742 58.647575C 509.66742 49.09508 506.8906 42.152966 501.3368 37.821022C 495.78302 33.48908 488.23 31.323137 478.67752 31.323137C 473.3459 31.323137 468.8474 31.98958 465.18192 33.322487C 461.51642 34.65539 458.51743 36.377037 456.18484 38.487473C 453.85226 40.597908 452.18616 42.930458 451.18646 45.485195C 450.1868 48.039932 449.68695 50.483555 449.68695 52.81614C 449.68695 57.48131 450.52 61.202286 452.18613 63.97917C 453.85226 66.75606 456.4625 68.922005 460.01694 70.47706C 462.46057 71.587814 465.23743 72.58748 468.34753 73.47608C 471.45767 74.364685 475.06757 75.308815 479.17734 76.308495C 482.84283 77.1971 486.45273 78.085686 490.00717 78.97429C 493.56158 79.8629 496.6994 81.05694 499.42078 82.55646C 502.14212 84.05598 504.3636 85.972 506.08527 88.30459C 507.80692 90.63718 508.66776 93.6917 508.66776 97.46827C 508.66776 101.133766 507.80692 104.24383 506.08527 106.79857C 504.3636 109.3533 502.1699 111.435936 499.50406 113.04653C 496.83826 114.65713 493.86703 115.8234 490.5903 116.545395C 487.31357 117.26739 484.1202 117.62837 481.0101 117.62837C 470.90222 117.62837 463.15482 115.37913 457.76764 110.88057C 452.3805 106.38201 449.68695 99.301056 449.68695 89.63749L449.68695 89.63749L446.3547 89.63749C 446.3547 100.41181 449.2704 108.29806 455.10187 113.296455C 460.93332 118.29485 469.5693 120.794014 481.0101 120.794014C 484.67557 120.794014 488.36877 120.37749 492.0898 119.54442C 495.81085 118.71135 499.14307 117.3507 502.08655 115.46242C 505.03006 113.57413 507.41815 111.13051 509.2509 108.13147C 511.08365 105.13243 512 101.466995 512 97.13505C 512 93.02525 511.1947 89.69304 509.5841 87.1383C 507.9735 84.583565 505.86313 82.47316 503.25284 80.80703C 500.64258 79.1409 497.69913 77.83578 494.4224 76.89164C 491.14566 75.947495 487.84122 75.031136 484.50894 74.14253C 479.84378 72.9207 475.7618 71.8655 472.26294 70.9769C 468.76407 70.088295 465.51514 69.03309 462.5161 67.81126C 459.62814 66.58943 457.32336 64.84002 455.60168 62.56297C 453.88004 60.28592 453.0192 57.03701 453.0192 52.81614C 453.0192 52.038612 453.24133 50.65019 453.68564 48.65083C 454.12994 46.65147 455.18515 44.624374 456.8513 42.569477C 458.51743 40.51458 461.0721 38.68186 464.51547 37.071266C 467.9588 35.46067 472.67944 34.655384 478.67752 34.655384C 482.78732 34.655384 486.53604 35.09968 489.92386 35.988285C 493.31165 36.87689 496.22736 38.29308 498.67102 40.2369C 501.11465 42.180725 503.00293 44.652115 504.33582 47.651154C 505.66873 50.650192 506.33517 54.31563 506.33517 58.647575z" stroke="none" fill="#222222" fill-rule="nonzero" />
	</g>
</g>
</svg>